<svg width="260" height="48" viewBox="0 0 260 48" fill="none" xmlns="http://www.w3.org/2000/svg">
<rect width="260" height="48" fill="#0A0A0A"/>
<g clip-path="url(#clip0_2407_1419)">
<path fill-rule="evenodd" clip-rule="evenodd" d="M23.0291 25.6373L18.4834 6.92082C18.3578 6.40879 18.1279 5.92817 17.8082 5.50898C17.4884 5.08979 17.0857 4.74104 16.6251 4.48452C16.1645 4.228 15.6559 4.06921 15.1312 4.01808C14.6065 3.96695 14.0768 4.02457 13.5754 4.18735L8.65623 5.78648C8.15435 5.94855 7.69129 6.21241 7.29601 6.56157C6.90073 6.91072 6.58172 7.33766 6.35893 7.8157C6.13614 8.29374 6.01436 8.81259 6.00119 9.33983C5.98803 9.86707 6.08377 10.3914 6.28243 10.8799L13.6141 28.6945C13.9802 29.5906 14.6715 30.3152 15.5494 30.7231C16.4273 31.131 17.4269 31.192 18.3479 30.894L20.492 30.1968C21.4126 29.8977 22.1859 29.2614 22.6565 28.4156C23.1271 27.5698 23.2602 26.5772 23.0291 25.6373ZM23.7124 43.7452C22.7241 44.0647 21.6632 44.0842 20.6638 43.8012C19.6643 43.5183 18.7711 42.9456 18.0969 42.1554C17.4227 41.3653 16.9976 40.3931 16.8755 39.3616C16.7533 38.3301 16.9395 37.2855 17.4104 36.3597C17.8814 35.4339 18.6162 34.6684 19.5219 34.1598C20.4275 33.6513 21.4636 33.4224 22.4993 33.5022C23.5349 33.5819 24.5237 33.9667 25.3409 34.608C26.158 35.2492 26.7669 36.1182 27.0905 37.1052C27.3063 37.7629 27.3899 38.4568 27.3368 39.1469C27.2837 39.8371 27.0947 40.51 26.7808 41.1269C26.467 41.7439 26.0343 42.2928 25.5078 42.7421C24.9812 43.1914 24.3711 43.5323 23.7124 43.7452ZM34.6325 38.9395C41.3776 36.7483 46.8224 28.9712 44.1139 20.6324C41.4025 12.2992 32.4274 9.20333 25.6823 11.3945C24.9251 11.64 24.289 12.1631 23.9019 12.8587C23.5149 13.5542 23.4057 14.3705 23.5962 15.1434L24.2768 17.946C24.3808 18.3667 24.5702 18.7616 24.8333 19.1059C25.0965 19.4502 25.4277 19.7367 25.8064 19.9475C26.1851 20.1582 26.6031 20.2887 27.0344 20.3309C27.4657 20.3731 27.9011 20.326 28.3134 20.1925L28.5901 20.104C29.2575 19.8668 29.9656 19.7657 30.6727 19.8068C31.3798 19.8479 32.0715 20.0302 32.707 20.3431C33.3424 20.656 33.9087 21.093 34.3724 21.6284C34.8361 22.1638 35.1879 22.7867 35.4068 23.4603C35.6257 24.1339 35.7074 24.8446 35.6471 25.5503C35.5868 26.256 35.3856 26.9425 35.0555 27.5692C34.7254 28.1959 34.2731 28.75 33.7253 29.199C33.1774 29.6479 32.5451 29.9825 31.8658 30.183L31.5891 30.2715C31.1776 30.4061 30.7982 30.6241 30.4746 30.9119C30.1511 31.1997 29.8903 31.5511 29.7086 31.9441C29.5269 32.3371 29.4281 32.7634 29.4184 33.1963C29.4088 33.6292 29.4885 34.0595 29.6525 34.4602L30.7398 37.1329C31.0404 37.87 31.6089 38.4661 32.3311 38.8012C33.0532 39.1364 33.8754 39.1858 34.6325 38.9395Z" fill="#838284"/>
<path fill-rule="evenodd" clip-rule="evenodd" d="M65.0632 17.5174C68.6488 15.5974 73.0672 15.9487 76.0607 18.9395C78.9325 21.8168 78.9906 25.953 78.9906 27.5798C78.9906 32.1863 76.863 36.0679 72.8126 37.2631C67.4204 38.9148 59.1619 37.4568 59.1619 37.4568C58.9787 37.4364 58.8094 37.3492 58.6864 37.2119C58.5635 37.0747 58.4953 36.8969 58.4951 36.7126V11.2592C58.4951 11.0985 58.5589 10.9444 58.6726 10.8308C58.7862 10.7172 58.9403 10.6533 59.101 10.6533H64.1585C64.3192 10.6533 64.4733 10.7172 64.5869 10.8308C64.7006 10.9444 64.7644 11.0985 64.7644 11.2592V17.3459C64.7646 17.3808 64.7739 17.415 64.7914 17.4451C64.809 17.4753 64.8342 17.5003 64.8644 17.5177C64.8947 17.535 64.9289 17.5442 64.9638 17.5441C64.9987 17.5441 65.033 17.5349 65.0632 17.5174ZM65.0106 32.1061C66.5655 32.5432 69.6697 32.7092 71.4459 30.8638V30.8694C72.6632 29.6852 74.0881 25.8562 71.2273 22.9954C70.0211 21.7615 68.0457 21.0947 65.3011 22.2401C65.1386 22.3178 65.0017 22.4403 64.9066 22.5933C64.8115 22.7462 64.7621 22.9232 64.7644 23.1033V31.7575C64.7619 31.8344 64.7847 31.9101 64.8291 31.973C64.8735 32.0359 64.9373 32.0826 65.0106 32.1061ZM152.639 11.2759V37.6035C152.64 37.7104 152.683 37.8127 152.758 37.8883C152.834 37.9639 152.936 38.0067 153.043 38.0074H158.541C158.648 38.0074 158.751 37.9649 158.827 37.8893C158.903 37.8136 158.946 37.7109 158.947 37.6035V11.2759C158.947 11.1152 158.883 10.9611 158.77 10.8474C158.656 10.7338 158.502 10.67 158.341 10.67H153.24C153.08 10.6714 152.927 10.7359 152.815 10.8494C152.702 10.9628 152.639 11.1161 152.639 11.2759ZM103.52 33.3511C103.211 33.3077 102.918 33.1868 102.668 32.9997C102.391 32.7563 102.244 32.3274 102.214 31.6302V17.0637C102.213 16.9238 102.157 16.7898 102.058 16.6909C101.96 16.5919 101.826 16.536 101.686 16.5353H96.5008C96.3607 16.5353 96.2263 16.591 96.1272 16.6901C96.0281 16.7892 95.9724 16.9236 95.9724 17.0637V30.5761C95.9751 30.5963 95.9751 30.6168 95.9724 30.637C95.4744 32.3966 93.4105 32.9278 91.792 32.6539C89.4929 32.2666 88.5328 30.3354 88.6158 28.111C88.6158 28.0336 88.6463 17.8163 88.6518 17.0637C88.6518 16.9236 88.5961 16.7892 88.497 16.6901C88.3979 16.591 88.2635 16.5353 88.1234 16.5353H82.9497C82.8108 16.5353 82.6775 16.5903 82.579 16.6883C82.4805 16.7863 82.4248 16.9192 82.424 17.0582C82.424 19.2715 82.4074 29.9121 82.4074 29.9121C82.4074 31.5721 82.9276 36.9505 88.3336 37.9355C90.8762 38.3975 93.9002 37.5813 96.3431 35.8439C96.3656 35.8271 96.3913 35.815 96.4185 35.8084C96.4458 35.8018 96.4741 35.8008 96.5018 35.8054C96.5295 35.8101 96.5559 35.8203 96.5795 35.8355C96.6032 35.8506 96.6234 35.8704 96.6392 35.8937C97.2277 36.7054 98.065 37.3028 99.024 37.5952C100.451 38.0643 102.389 37.8751 102.974 37.8179L102.989 37.8165C103.081 37.8064 103.166 37.7652 103.232 37.6998C103.297 37.6345 103.338 37.5487 103.348 37.4568L103.844 33.8159C103.862 33.7114 103.839 33.6037 103.778 33.5166C103.717 33.4295 103.624 33.37 103.52 33.3511ZM207.245 25.4024C207.06 23.0314 206.326 20.558 204.821 18.7624L204.781 18.7139L204.742 18.6677C204.123 17.9217 202.467 15.9273 197.368 15.9432C195.279 15.9432 193.188 16.0843 191.107 16.2835C189.917 16.3914 188.728 16.5131 187.541 16.6376C186.772 16.7184 186.774 17.1847 186.777 17.8121C186.777 17.8507 186.777 17.8899 186.777 17.9297V43.0566C186.762 43.1787 186.771 43.3028 186.803 43.4215C186.836 43.5402 186.892 43.6513 186.968 43.7482C187.156 43.8836 187.388 43.9429 187.618 43.9142H192.172C192.284 43.9459 192.402 43.9477 192.515 43.9196C192.628 43.8914 192.732 43.8342 192.815 43.7537C192.899 43.6731 192.961 43.572 192.993 43.4604C193.026 43.3488 193.029 43.2305 193.002 43.1174C193.013 41.6579 193.01 40.2179 193.006 38.7731C193.004 38.0489 193.002 37.3234 193.002 36.5936C193.002 36.5549 193.012 36.5168 193.033 36.4839C193.053 36.451 193.082 36.4246 193.117 36.408C193.152 36.3914 193.191 36.3852 193.23 36.3901C193.268 36.3951 193.305 36.411 193.334 36.4359C195.149 38.0157 197.863 38.4528 200.193 37.7778C202.661 37.0695 204.708 35.1771 205.884 32.8891C207.06 30.601 207.441 27.9699 207.245 25.4024ZM200.882 28.4292C200.361 30.4627 199.429 32.0259 196.629 32.1946C195.229 32.2749 193.005 31.4836 193.005 30.1805V22.3868C193.005 22.088 193.038 21.8694 193.329 21.7394C193.929 21.4627 195.542 21.2386 196.779 21.2773C202.102 21.4295 201.153 27.4249 200.895 28.4292H200.882ZM119.807 26.5147C119.364 27.1427 119.364 27.3557 119.779 27.9423L127.117 37.3794C127.16 37.4399 127.186 37.5114 127.191 37.5857C127.196 37.66 127.18 37.7342 127.144 37.7999C127.111 37.8667 127.06 37.9227 126.996 37.9614C126.933 38.0001 126.859 38.0199 126.785 38.0185H120.742C120.675 38.0182 120.61 38.0014 120.551 37.9695C120.492 37.9376 120.442 37.8918 120.405 37.8359L114.086 29.641C114.047 29.5912 113.993 29.5546 113.933 29.5361C113.872 29.5175 113.808 29.5179 113.747 29.5372C113.687 29.5564 113.634 29.5937 113.596 29.6439C113.557 29.6941 113.535 29.7549 113.532 29.8181V37.6146C113.532 37.7219 113.488 37.8247 113.412 37.9003C113.336 37.976 113.233 38.0185 113.126 38.0185H107.67C107.563 38.0178 107.461 37.975 107.385 37.8994C107.309 37.8238 107.267 37.7215 107.266 37.6146V11.2759C107.265 11.1956 107.28 11.116 107.311 11.0417C107.341 10.9673 107.386 10.8997 107.442 10.8429C107.499 10.786 107.566 10.7409 107.64 10.7103C107.715 10.6796 107.794 10.6641 107.875 10.6644H112.924C113.084 10.6644 113.238 10.7283 113.352 10.8419C113.466 10.9555 113.53 11.1096 113.53 11.2703V25.1037C113.532 25.1601 113.551 25.2146 113.585 25.2598C113.619 25.3051 113.665 25.3388 113.719 25.3566C113.773 25.3744 113.83 25.3753 113.885 25.3593C113.939 25.3432 113.987 25.311 114.022 25.2669C115.239 23.6069 119.436 17.725 120.109 16.7649C120.146 16.711 120.195 16.667 120.253 16.6366C120.311 16.6062 120.375 16.5904 120.441 16.5906H126.342C126.418 16.5887 126.493 16.6092 126.557 16.6495C126.622 16.6899 126.673 16.7483 126.704 16.8175C126.739 16.8849 126.754 16.9611 126.747 17.0367C126.739 17.1123 126.71 17.1842 126.663 17.2436L119.807 26.5147ZM246.449 27.9423C246.036 27.3557 246.036 27.1427 246.479 26.5147L253.346 17.2436C253.392 17.1834 253.42 17.1118 253.427 17.0366C253.434 16.9614 253.421 16.8857 253.387 16.8179C253.354 16.7501 253.302 16.693 253.238 16.6528C253.174 16.6127 253.101 16.5911 253.025 16.5906H247.113C247.047 16.5902 246.983 16.6059 246.925 16.6363C246.867 16.6667 246.817 16.7109 246.781 16.7649C246.108 17.725 241.911 23.6069 240.694 25.2669C240.659 25.3121 240.611 25.3453 240.556 25.362C240.502 25.3787 240.443 25.378 240.389 25.3601C240.334 25.3422 240.287 25.308 240.253 25.2621C240.219 25.2161 240.2 25.1608 240.199 25.1037V11.2703C240.199 11.1908 240.183 11.112 240.153 11.0385C240.122 10.9649 240.078 10.8982 240.021 10.8419C239.965 10.7856 239.898 10.741 239.825 10.7105C239.751 10.6801 239.672 10.6644 239.593 10.6644H234.533C234.453 10.6644 234.374 10.6801 234.301 10.7105C234.227 10.741 234.16 10.7856 234.104 10.8419C234.048 10.8982 234.003 10.9649 233.973 11.0385C233.942 11.112 233.927 11.1908 233.927 11.2703V37.609C233.927 37.7164 233.971 37.8191 234.047 37.8948C234.123 37.9705 234.226 38.0129 234.333 38.0129H239.789C239.896 38.0122 239.999 37.9694 240.074 37.8938C240.15 37.8182 240.193 37.7159 240.193 37.609V29.8181C240.198 29.7556 240.221 29.6959 240.259 29.6467C240.298 29.5974 240.35 29.5609 240.41 29.5418C240.469 29.5228 240.533 29.522 240.593 29.5397C240.653 29.5574 240.707 29.5927 240.747 29.641L247.066 37.8359C247.103 37.8916 247.153 37.9373 247.212 37.9692C247.271 38.001 247.336 38.0179 247.403 38.0185H253.448C253.523 38.0193 253.596 37.9992 253.659 37.9606C253.723 37.9219 253.774 37.8663 253.808 37.7999C253.843 37.7342 253.859 37.6597 253.854 37.5852C253.849 37.5107 253.822 37.4393 253.778 37.3794L246.449 27.9423ZM148.801 33.3473L148.865 33.3621C148.966 33.3854 149.055 33.446 149.113 33.5317C149.171 33.6174 149.194 33.7219 149.178 33.8242L148.677 37.4651C148.668 37.5562 148.628 37.6415 148.564 37.7065C148.499 37.7715 148.414 37.8123 148.323 37.822L148.227 37.8321C147.526 37.9063 145.363 38.1353 143.808 37.396C143.071 37.07 142.435 36.551 141.968 35.8937C141.954 35.8712 141.936 35.8519 141.914 35.8368C141.892 35.8218 141.868 35.8114 141.842 35.8062C141.816 35.801 141.789 35.8012 141.763 35.8067C141.737 35.8122 141.713 35.823 141.692 35.8383C140.9 36.4083 137.45 38.6271 133.557 37.9078C132.424 37.7114 131.361 37.2222 130.475 36.4885C127.573 33.9985 127.38 28.656 130.229 25.9945C130.944 25.3965 131.753 24.9198 132.622 24.5835C136.305 22.9871 141.312 23.2251 141.312 23.2251C141.368 22.2678 141.191 21.0449 138.806 20.8291C136.888 20.6178 133.344 21.2408 132.294 21.4255C132.203 21.4414 132.131 21.4541 132.08 21.4627C132.001 21.4773 131.919 21.4759 131.841 21.4585C131.762 21.4411 131.687 21.4081 131.622 21.3614C131.556 21.3147 131.5 21.2553 131.458 21.1867C131.415 21.1181 131.387 21.0417 131.375 20.9619L130.229 17.5562C130.216 17.4775 130.218 17.3969 130.236 17.3191C130.253 17.2413 130.286 17.1677 130.333 17.1027C130.379 17.0376 130.438 16.9824 130.505 16.9401C130.573 16.8978 130.648 16.8693 130.727 16.8562C131.817 16.6847 134.858 16.2503 136.175 16.1092C142.913 15.3093 144.976 17.5302 145.732 18.3438L145.733 18.3442C145.779 18.3943 145.821 18.4391 145.858 18.4775C147.499 20.3145 147.609 22.9041 147.593 25.2364L147.549 31.3231C147.549 33.0619 148.143 33.1973 148.801 33.3473ZM140.969 31.8432C141.177 31.6301 141.295 31.3443 141.296 31.0464V27.5106C141.296 27.1393 140.292 27.2487 140.044 27.2758C140.014 27.279 139.996 27.281 139.99 27.281C138.297 27.5106 137.096 27.826 136.33 28.2244C135.356 28.739 134.866 29.5165 134.866 30.5484C134.852 30.8997 134.92 31.2494 135.064 31.57C135.208 31.8907 135.424 32.1736 135.696 32.3966C137.743 33.8574 140.305 32.5487 140.969 31.8432ZM183.014 33.3621L182.949 33.3472C182.294 33.1972 181.7 33.0614 181.7 31.3231L181.745 25.2364C181.761 22.9041 181.648 20.3145 180.01 18.4775C179.972 18.4385 179.929 18.3929 179.882 18.3418V18.3417C179.122 17.5264 177.056 15.3099 170.327 16.1092C169.01 16.2503 165.969 16.6847 164.879 16.8562C164.721 16.8839 164.58 16.9731 164.487 17.1042C164.394 17.2353 164.357 17.3978 164.384 17.5562L165.529 20.9619C165.541 21.0417 165.57 21.1181 165.612 21.1867C165.655 21.2553 165.71 21.3147 165.776 21.3614C165.842 21.4081 165.916 21.4411 165.995 21.4585C166.074 21.4759 166.155 21.4773 166.235 21.4627L166.281 21.4543C167.033 21.3169 170.917 20.6071 172.952 20.8236C175.337 21.0394 175.514 22.2623 175.461 23.2195C175.461 23.2195 170.451 22.9816 166.769 24.578C165.903 24.9154 165.098 25.392 164.387 25.989C161.54 28.6505 161.73 33.993 164.633 36.483C165.519 37.2166 166.581 37.7059 167.715 37.9023C171.61 38.6216 175.058 36.4027 175.849 35.8328C175.87 35.8175 175.895 35.8067 175.921 35.8012C175.946 35.7956 175.973 35.7955 175.999 35.8007C176.025 35.8058 176.05 35.8163 176.071 35.8313C176.093 35.8464 176.111 35.8657 176.125 35.8881C176.592 36.5454 177.228 37.0645 177.965 37.3904C179.52 38.1297 181.683 37.9008 182.384 37.8266L182.481 37.8165C182.572 37.8068 182.656 37.766 182.721 37.701C182.785 37.636 182.826 37.5507 182.835 37.4596L183.349 33.8242C183.365 33.7188 183.338 33.6115 183.276 33.5253C183.213 33.439 183.119 33.3805 183.014 33.3621ZM175.459 31.0464C175.457 31.3443 175.34 31.6301 175.132 31.8432C174.465 32.5487 171.904 33.8574 169.859 32.3966C169.587 32.1735 169.371 31.8905 169.227 31.5699C169.083 31.2493 169.015 30.8997 169.029 30.5484C169.029 29.5165 169.519 28.739 170.495 28.2244C171.262 27.826 172.46 27.5106 174.153 27.281C174.158 27.281 174.177 27.279 174.206 27.2758C174.455 27.2487 175.461 27.1392 175.461 27.5106L175.459 31.0464ZM230.061 33.3473C230.082 33.3522 230.104 33.3572 230.125 33.3621C230.226 33.3847 230.315 33.444 230.374 33.5284C230.433 33.6128 230.459 33.7163 230.446 33.8186L229.945 37.4596C229.936 37.5507 229.896 37.636 229.832 37.701C229.767 37.766 229.682 37.8068 229.591 37.8165C229.563 37.8194 229.53 37.8229 229.493 37.8268C228.788 37.9012 226.627 38.1291 225.076 37.3904C224.338 37.0652 223.703 36.546 223.236 35.8881C223.222 35.866 223.204 35.847 223.182 35.8321C223.16 35.8173 223.136 35.807 223.11 35.8019C223.084 35.7967 223.057 35.7968 223.032 35.8021C223.006 35.8074 222.981 35.8178 222.96 35.8328C222.168 36.4027 218.718 38.6216 214.826 37.9023C213.692 37.7065 212.629 37.2172 211.744 36.483C208.841 33.993 208.648 28.6505 211.497 25.989C212.209 25.392 213.014 24.9154 213.879 24.578C217.562 22.9816 222.57 23.2195 222.57 23.2195C222.622 22.2623 222.448 21.0394 220.063 20.8236C218.017 20.6062 214.108 21.323 213.382 21.4561L213.345 21.4627C213.266 21.4774 213.184 21.476 213.105 21.4586C213.027 21.4412 212.952 21.4082 212.886 21.3616C212.82 21.3149 212.764 21.2555 212.721 21.1869C212.678 21.1183 212.65 21.0418 212.637 20.9619L211.492 17.5562C211.466 17.3975 211.504 17.235 211.597 17.104C211.69 16.973 211.831 16.884 211.99 16.8562C213.077 16.6847 216.12 16.2503 217.435 16.1092C224.173 15.3093 226.236 17.5302 226.992 18.3438C227.039 18.3941 227.08 18.439 227.118 18.4775C228.756 20.3145 228.869 22.9041 228.853 25.2364L228.808 31.3231C228.808 33.0619 229.403 33.1973 230.061 33.3473ZM222.24 31.8432C222.448 31.6301 222.565 31.3443 222.567 31.0464V27.5106C222.567 27.1393 221.563 27.2487 221.314 27.2758C221.285 27.279 221.266 27.281 221.261 27.281C219.565 27.5106 218.367 27.826 217.601 28.2244C216.624 28.739 216.137 29.5165 216.137 30.5484C216.123 30.8997 216.191 31.2494 216.335 31.57C216.479 31.8907 216.695 32.1736 216.967 32.3966C219.014 33.8574 221.574 32.5487 222.24 31.8432Z" fill="#838284"/>
</g>
<defs>
<clipPath id="clip0_2407_1419">
<rect width="248" height="40" fill="white" transform="translate(6 4)"/>
</clipPath>
</defs>
</svg>
