<svg width="248" height="40" viewBox="0 0 248 40" fill="none" xmlns="http://www.w3.org/2000/svg">
<g clip-path="url(#clip0)">
<path fill-rule="evenodd" clip-rule="evenodd" d="M17.0291 21.6373L12.4834 2.92082C12.3578 2.40879 12.1279 1.92817 11.8082 1.50898C11.4884 1.08979 11.0857 0.741043 10.6251 0.484519C10.1645 0.227995 9.65593 0.0692076 9.1312 0.0180765C8.60647 -0.0330546 8.07683 0.024569 7.57537 0.187348L2.65623 1.78648C2.15435 1.94855 1.69129 2.21241 1.29601 2.56157C0.900728 2.91072 0.581721 3.33766 0.358931 3.8157C0.136141 4.29374 0.0143579 4.81259 0.00119463 5.33983C-0.0119687 5.86707 0.0837709 6.39136 0.282428 6.87992L7.6141 24.6945C7.98024 25.5906 8.67153 26.3152 9.54941 26.7231C10.4273 27.131 11.4269 27.192 12.3479 26.894L14.492 26.1968C15.4126 25.8977 16.1859 25.2614 16.6565 24.4156C17.1271 23.5698 17.2602 22.5772 17.0291 21.6373ZM17.7124 39.7452C16.7241 40.0647 15.6632 40.0842 14.6638 39.8012C13.6643 39.5183 12.7711 38.9456 12.0969 38.1554C11.4227 37.3653 10.9976 36.3931 10.8755 35.3616C10.7533 34.3301 10.9395 33.2855 11.4104 32.3597C11.8814 31.4339 12.6162 30.6684 13.5219 30.1598C14.4275 29.6513 15.4636 29.4224 16.4993 29.5022C17.5349 29.5819 18.5237 29.9667 19.3409 30.608C20.158 31.2492 20.7669 32.1182 21.0905 33.1052C21.3063 33.7629 21.3899 34.4568 21.3368 35.1469C21.2837 35.8371 21.0947 36.51 20.7808 37.1269C20.467 37.7439 20.0343 38.2928 19.5078 38.7421C18.9812 39.1914 18.3711 39.5323 17.7124 39.7452ZM28.6325 34.9395C35.3776 32.7483 40.8224 24.9712 38.1139 16.6324C35.4025 8.29923 26.4274 5.20333 19.6823 7.39453C18.9251 7.63997 18.289 8.16311 17.9019 8.85865C17.5149 9.5542 17.4057 10.3705 17.5962 11.1434L18.2768 13.946C18.3808 14.3667 18.5702 14.7616 18.8333 15.1059C19.0965 15.4502 19.4277 15.7367 19.8064 15.9475C20.1851 16.1582 20.6031 16.2887 21.0344 16.3309C21.4657 16.3731 21.9011 16.326 22.3134 16.1925L22.5901 16.104C23.2575 15.8668 23.9656 15.7657 24.6727 15.8068C25.3798 15.8479 26.0715 16.0302 26.707 16.3431C27.3424 16.656 27.9087 17.093 28.3724 17.6284C28.8361 18.1638 29.1879 18.7867 29.4068 19.4603C29.6257 20.1339 29.7074 20.8446 29.6471 21.5503C29.5868 22.256 29.3856 22.9425 29.0555 23.5692C28.7254 24.1959 28.2731 24.75 27.7253 25.199C27.1774 25.6479 26.5451 25.9825 25.8658 26.183L25.5891 26.2715C25.1776 26.4061 24.7982 26.6241 24.4746 26.9119C24.1511 27.1997 23.8903 27.5511 23.7086 27.9441C23.5269 28.3371 23.4281 28.7634 23.4184 29.1963C23.4088 29.6292 23.4885 30.0595 23.6525 30.4602L24.7398 33.1329C25.0404 33.87 25.6089 34.4661 26.3311 34.8012C27.0532 35.1364 27.8754 35.1858 28.6325 34.9395Z" fill="#838284"/>
<path fill-rule="evenodd" clip-rule="evenodd" d="M59.0632 13.5174C62.6488 11.5974 67.0672 11.9487 70.0607 14.9395C72.9325 17.8168 72.9906 21.953 72.9906 23.5798C72.9906 28.1863 70.863 32.0679 66.8126 33.2631C61.4204 34.9148 53.1619 33.4568 53.1619 33.4568C52.9787 33.4364 52.8094 33.3492 52.6864 33.2119C52.5635 33.0747 52.4953 32.8969 52.4951 32.7126V7.25922C52.4951 7.09852 52.5589 6.94441 52.6726 6.83078C52.7862 6.71715 52.9403 6.65332 53.101 6.65332H58.1585C58.3192 6.65332 58.4733 6.71715 58.5869 6.83078C58.7006 6.94441 58.7644 7.09852 58.7644 7.25922V13.3459C58.7646 13.3808 58.7739 13.415 58.7914 13.4451C58.809 13.4753 58.8342 13.5003 58.8644 13.5177C58.8947 13.535 58.9289 13.5442 58.9638 13.5441C58.9987 13.5441 59.033 13.5349 59.0632 13.5174ZM59.0106 28.1061C60.5655 28.5432 63.6697 28.7092 65.4459 26.8638V26.8694C66.6632 25.6852 68.0881 21.8562 65.2273 18.9954C64.0211 17.7615 62.0457 17.0947 59.3011 18.2401C59.1386 18.3178 59.0017 18.4403 58.9066 18.5933C58.8115 18.7462 58.7621 18.9232 58.7644 19.1033V27.7575C58.7619 27.8344 58.7847 27.9101 58.8291 27.973C58.8735 28.0359 58.9373 28.0826 59.0106 28.1061ZM146.639 7.27586V33.6035C146.64 33.7104 146.683 33.8127 146.758 33.8883C146.834 33.9639 146.936 34.0067 147.043 34.0074H152.541C152.648 34.0074 152.751 33.9649 152.827 33.8893C152.903 33.8136 152.946 33.7109 152.947 33.6035V7.27586C152.947 7.11516 152.883 6.96105 152.77 6.84742C152.656 6.73379 152.502 6.66996 152.341 6.66996H147.24C147.08 6.67142 146.927 6.7359 146.815 6.84937C146.702 6.96284 146.639 7.11612 146.639 7.27586ZM97.5199 29.3511C97.2108 29.3077 96.9176 29.1868 96.6678 28.9997C96.3911 28.7563 96.2444 28.3274 96.214 27.6302V13.0637C96.2133 12.9238 96.1574 12.7898 96.0584 12.6909C95.9595 12.5919 95.8255 12.536 95.6856 12.5353H90.5008C90.3607 12.5353 90.2263 12.591 90.1272 12.6901C90.0281 12.7892 89.9724 12.9236 89.9724 13.0637V26.5761C89.9751 26.5963 89.9751 26.6168 89.9724 26.637C89.4744 28.3966 87.4105 28.9278 85.792 28.6539C83.4929 28.2666 82.5328 26.3354 82.6158 24.111C82.6158 24.0336 82.6463 13.8163 82.6518 13.0637C82.6518 12.9236 82.5961 12.7892 82.497 12.6901C82.3979 12.591 82.2635 12.5353 82.1234 12.5353H76.9497C76.8108 12.5353 76.6775 12.5903 76.579 12.6883C76.4805 12.7863 76.4248 12.9192 76.424 13.0582C76.424 15.2715 76.4074 25.9121 76.4074 25.9121C76.4074 27.5721 76.9276 32.9505 82.3336 33.9355C84.8762 34.3975 87.9002 33.5813 90.3431 31.8439C90.3656 31.8271 90.3913 31.815 90.4185 31.8084C90.4458 31.8018 90.4741 31.8008 90.5018 31.8054C90.5295 31.8101 90.5559 31.8203 90.5795 31.8355C90.6032 31.8506 90.6234 31.8704 90.6392 31.8937C91.2277 32.7054 92.065 33.3028 93.024 33.5952C94.4507 34.0643 96.3887 33.8751 96.9741 33.8179L96.9887 33.8165C97.0806 33.8064 97.1663 33.7652 97.2317 33.6998C97.2971 33.6345 97.3382 33.5487 97.3484 33.4568L97.8436 29.8159C97.8621 29.7114 97.8385 29.6037 97.7778 29.5166C97.7171 29.4295 97.6244 29.37 97.5199 29.3511ZM201.245 21.4024C201.06 19.0314 200.326 16.558 198.821 14.7624L198.781 14.7139L198.742 14.6677C198.123 13.9217 196.467 11.9273 191.368 11.9432C189.279 11.9432 187.188 12.0843 185.107 12.2835C183.917 12.3914 182.728 12.5131 181.541 12.6376C180.772 12.7184 180.774 13.1847 180.777 13.8121C180.777 13.8507 180.777 13.8899 180.777 13.9297V39.0566C180.762 39.1787 180.771 39.3028 180.803 39.4215C180.836 39.5402 180.892 39.6513 180.968 39.7482C181.156 39.8836 181.388 39.9429 181.618 39.9142H186.172C186.284 39.9459 186.402 39.9477 186.515 39.9196C186.628 39.8914 186.732 39.8342 186.815 39.7537C186.899 39.6731 186.961 39.572 186.993 39.4604C187.026 39.3488 187.029 39.2305 187.002 39.1174C187.013 37.6579 187.01 36.2179 187.006 34.7731C187.004 34.0489 187.002 33.3234 187.002 32.5936C187.002 32.5549 187.012 32.5168 187.033 32.4839C187.053 32.451 187.082 32.4246 187.117 32.408C187.152 32.3914 187.191 32.3852 187.23 32.3901C187.268 32.3951 187.305 32.411 187.334 32.4359C189.149 34.0157 191.863 34.4528 194.193 33.7778C196.661 33.0695 198.708 31.1771 199.884 28.8891C201.06 26.601 201.441 23.9699 201.245 21.4024ZM194.882 24.4292C194.361 26.4627 193.429 28.0259 190.629 28.1946C189.229 28.2749 187.005 27.4836 187.005 26.1805V18.3868C187.005 18.088 187.038 17.8694 187.329 17.7394C187.929 17.4627 189.542 17.2386 190.779 17.2773C196.102 17.4295 195.153 23.4249 194.895 24.4292H194.882ZM113.807 22.5147C113.364 23.1427 113.364 23.3557 113.779 23.9423L121.117 33.3794C121.16 33.4399 121.186 33.5114 121.191 33.5857C121.196 33.66 121.18 33.7342 121.144 33.7999C121.111 33.8667 121.06 33.9227 120.996 33.9614C120.933 34.0001 120.859 34.0199 120.785 34.0185H114.742C114.675 34.0182 114.61 34.0014 114.551 33.9695C114.492 33.9376 114.442 33.8918 114.405 33.8359L108.086 25.641C108.047 25.5912 107.993 25.5546 107.933 25.5361C107.872 25.5175 107.808 25.5179 107.747 25.5372C107.687 25.5564 107.634 25.5937 107.596 25.6439C107.557 25.6941 107.535 25.7549 107.532 25.8181V33.6146C107.532 33.7219 107.488 33.8247 107.412 33.9003C107.336 33.976 107.233 34.0185 107.126 34.0185H101.67C101.563 34.0178 101.461 33.975 101.385 33.8994C101.309 33.8238 101.267 33.7215 101.266 33.6146V7.27586C101.265 7.19559 101.28 7.11598 101.311 7.04165C101.341 6.96732 101.386 6.89974 101.442 6.84286C101.499 6.78597 101.566 6.7409 101.64 6.71027C101.715 6.67964 101.794 6.66406 101.875 6.66443H106.924C107.084 6.66443 107.238 6.72826 107.352 6.84189C107.466 6.95552 107.53 7.10963 107.53 7.27033V21.1037C107.532 21.1601 107.551 21.2146 107.585 21.2598C107.619 21.3051 107.665 21.3388 107.719 21.3566C107.773 21.3744 107.83 21.3753 107.885 21.3593C107.939 21.3432 107.987 21.311 108.022 21.2669C109.239 19.6069 113.436 13.725 114.109 12.7649C114.146 12.711 114.195 12.667 114.253 12.6366C114.311 12.6062 114.375 12.5904 114.441 12.5906H120.342C120.418 12.5887 120.493 12.6092 120.557 12.6495C120.622 12.6899 120.673 12.7483 120.704 12.8175C120.739 12.8849 120.754 12.9611 120.747 13.0367C120.739 13.1123 120.71 13.1842 120.663 13.2436L113.807 22.5147ZM240.449 23.9423C240.036 23.3557 240.036 23.1427 240.479 22.5147L247.346 13.2436C247.392 13.1834 247.42 13.1118 247.427 13.0366C247.434 12.9614 247.421 12.8857 247.387 12.8179C247.354 12.7501 247.302 12.693 247.238 12.6528C247.174 12.6127 247.101 12.5911 247.025 12.5906H241.113C241.047 12.5902 240.983 12.6059 240.925 12.6363C240.867 12.6667 240.817 12.7109 240.781 12.7649C240.108 13.725 235.911 19.6069 234.694 21.2669C234.659 21.3121 234.611 21.3453 234.556 21.362C234.502 21.3787 234.443 21.378 234.389 21.3601C234.334 21.3422 234.287 21.308 234.253 21.2621C234.219 21.2161 234.2 21.1608 234.199 21.1037V7.27032C234.199 7.19075 234.183 7.11196 234.153 7.03845C234.122 6.96494 234.078 6.89815 234.021 6.84188C233.965 6.78562 233.898 6.74099 233.825 6.71054C233.751 6.68009 233.672 6.66442 233.593 6.66442H228.533C228.453 6.66442 228.374 6.68009 228.301 6.71054C228.227 6.74099 228.16 6.78562 228.104 6.84188C228.048 6.89815 228.003 6.96494 227.973 7.03845C227.942 7.11196 227.927 7.19075 227.927 7.27032V33.609C227.927 33.7164 227.971 33.8191 228.047 33.8948C228.123 33.9705 228.226 34.0129 228.333 34.0129H233.789C233.896 34.0122 233.999 33.9694 234.074 33.8938C234.15 33.8182 234.193 33.7159 234.193 33.609V25.8181C234.198 25.7556 234.221 25.6959 234.259 25.6467C234.298 25.5974 234.35 25.5609 234.41 25.5418C234.469 25.5228 234.533 25.522 234.593 25.5397C234.653 25.5574 234.707 25.5927 234.747 25.641L241.066 33.8359C241.103 33.8916 241.153 33.9373 241.212 33.9692C241.271 34.001 241.336 34.0179 241.403 34.0185H247.448C247.523 34.0193 247.596 33.9992 247.659 33.9606C247.723 33.9219 247.774 33.8663 247.808 33.7999C247.843 33.7342 247.859 33.6597 247.854 33.5852C247.849 33.5107 247.822 33.4393 247.778 33.3794L240.449 23.9423ZM142.801 29.3473L142.865 29.3621C142.966 29.3854 143.055 29.446 143.113 29.5317C143.171 29.6174 143.194 29.7219 143.178 29.8242L142.677 33.4651C142.668 33.5562 142.628 33.6415 142.564 33.7065C142.499 33.7715 142.414 33.8123 142.323 33.822L142.227 33.8321C141.526 33.9063 139.363 34.1353 137.808 33.396C137.071 33.07 136.435 32.551 135.968 31.8937C135.954 31.8712 135.936 31.8519 135.914 31.8368C135.892 31.8218 135.868 31.8114 135.842 31.8062C135.816 31.801 135.789 31.8012 135.763 31.8067C135.737 31.8122 135.713 31.823 135.692 31.8383C134.9 32.4083 131.45 34.6271 127.557 33.9078C126.424 33.7114 125.361 33.2222 124.475 32.4885C121.573 29.9985 121.38 24.656 124.229 21.9945C124.944 21.3965 125.753 20.9198 126.622 20.5835C130.305 18.9871 135.312 19.2251 135.312 19.2251C135.368 18.2678 135.191 17.0449 132.806 16.8291C130.888 16.6178 127.344 17.2408 126.294 17.4255C126.203 17.4414 126.131 17.4541 126.08 17.4627C126.001 17.4773 125.919 17.4759 125.841 17.4585C125.762 17.4411 125.687 17.4081 125.622 17.3614C125.556 17.3147 125.5 17.2553 125.458 17.1867C125.415 17.1181 125.387 17.0417 125.375 16.9619L124.229 13.5562C124.216 13.4775 124.218 13.3969 124.236 13.3191C124.253 13.2413 124.286 13.1677 124.333 13.1027C124.379 13.0376 124.438 12.9824 124.505 12.9401C124.573 12.8978 124.648 12.8693 124.727 12.8562C125.817 12.6847 128.858 12.2503 130.175 12.1092C136.913 11.3093 138.976 13.5302 139.732 14.3438L139.733 14.3442C139.779 14.3943 139.821 14.4391 139.858 14.4775C141.499 16.3145 141.609 18.9041 141.593 21.2364L141.549 27.3231C141.549 29.0619 142.143 29.1973 142.801 29.3473ZM134.969 27.8432C135.177 27.6301 135.295 27.3443 135.296 27.0464V23.5106C135.296 23.1393 134.292 23.2487 134.044 23.2758C134.014 23.279 133.996 23.281 133.99 23.281C132.297 23.5106 131.096 23.826 130.33 24.2244C129.356 24.739 128.866 25.5165 128.866 26.5484C128.852 26.8997 128.92 27.2494 129.064 27.57C129.208 27.8907 129.424 28.1736 129.696 28.3966C131.743 29.8574 134.305 28.5487 134.969 27.8432ZM177.014 29.3621L176.949 29.3472C176.294 29.1972 175.7 29.0614 175.7 27.3231L175.745 21.2364C175.761 18.9041 175.648 16.3145 174.01 14.4775C173.972 14.4385 173.929 14.3929 173.882 14.3418V14.3417C173.122 13.5264 171.056 11.3099 164.327 12.1092C163.01 12.2503 159.969 12.6847 158.879 12.8562C158.721 12.8839 158.58 12.9731 158.487 13.1042C158.394 13.2353 158.357 13.3978 158.384 13.5562L159.529 16.9619C159.541 17.0417 159.57 17.1181 159.612 17.1867C159.655 17.2553 159.71 17.3147 159.776 17.3614C159.842 17.4081 159.916 17.4411 159.995 17.4585C160.074 17.4759 160.155 17.4773 160.235 17.4627L160.281 17.4543C161.033 17.3169 164.917 16.6071 166.952 16.8236C169.337 17.0394 169.514 18.2623 169.461 19.2195C169.461 19.2195 164.451 18.9816 160.769 20.578C159.903 20.9154 159.098 21.392 158.387 21.989C155.54 24.6505 155.73 29.993 158.633 32.483C159.519 33.2166 160.581 33.7059 161.715 33.9023C165.61 34.6216 169.058 32.4027 169.849 31.8328C169.87 31.8175 169.895 31.8067 169.921 31.8012C169.946 31.7956 169.973 31.7955 169.999 31.8007C170.025 31.8058 170.05 31.8163 170.071 31.8313C170.093 31.8464 170.111 31.8657 170.125 31.8881C170.592 32.5454 171.228 33.0645 171.965 33.3904C173.52 34.1297 175.683 33.9008 176.384 33.8266L176.481 33.8165C176.572 33.8068 176.656 33.766 176.721 33.701C176.785 33.636 176.826 33.5507 176.835 33.4596L177.349 29.8242C177.365 29.7188 177.338 29.6115 177.276 29.5253C177.213 29.439 177.119 29.3805 177.014 29.3621ZM169.459 27.0464C169.457 27.3443 169.34 27.6301 169.132 27.8432C168.465 28.5487 165.904 29.8574 163.859 28.3966C163.587 28.1735 163.371 27.8905 163.227 27.5699C163.083 27.2493 163.015 26.8997 163.029 26.5484C163.029 25.5165 163.519 24.739 164.495 24.2244C165.262 23.826 166.46 23.5106 168.153 23.281C168.158 23.281 168.177 23.279 168.206 23.2758C168.455 23.2487 169.461 23.1392 169.461 23.5106L169.459 27.0464ZM224.061 29.3473C224.082 29.3522 224.104 29.3572 224.125 29.3621C224.226 29.3847 224.315 29.444 224.374 29.5284C224.433 29.6128 224.459 29.7163 224.446 29.8186L223.945 33.4596C223.936 33.5507 223.896 33.636 223.832 33.701C223.767 33.766 223.682 33.8068 223.591 33.8165C223.563 33.8194 223.53 33.8229 223.493 33.8268C222.788 33.9012 220.627 34.1291 219.076 33.3904C218.338 33.0652 217.703 32.546 217.236 31.8881C217.222 31.866 217.204 31.847 217.182 31.8321C217.16 31.8173 217.136 31.807 217.11 31.8019C217.084 31.7967 217.057 31.7968 217.032 31.8021C217.006 31.8074 216.981 31.8178 216.96 31.8328C216.168 32.4027 212.718 34.6216 208.826 33.9023C207.692 33.7065 206.629 33.2172 205.744 32.483C202.841 29.993 202.648 24.6505 205.497 21.989C206.209 21.392 207.014 20.9154 207.879 20.578C211.562 18.9816 216.57 19.2195 216.57 19.2195C216.622 18.2623 216.448 17.0394 214.063 16.8236C212.017 16.6062 208.108 17.323 207.382 17.4561L207.345 17.4627C207.266 17.4774 207.184 17.476 207.105 17.4586C207.027 17.4412 206.952 17.4082 206.886 17.3616C206.82 17.3149 206.764 17.2555 206.721 17.1869C206.678 17.1183 206.65 17.0418 206.637 16.9619L205.492 13.5562C205.466 13.3975 205.504 13.235 205.597 13.104C205.69 12.973 205.831 12.884 205.99 12.8562C207.077 12.6847 210.12 12.2503 211.435 12.1092C218.173 11.3093 220.236 13.5302 220.992 14.3438C221.039 14.3941 221.08 14.439 221.118 14.4775C222.756 16.3145 222.869 18.9041 222.853 21.2364L222.808 27.3231C222.808 29.0619 223.403 29.1973 224.061 29.3473ZM216.24 27.8432C216.448 27.6301 216.565 27.3443 216.567 27.0464V23.5106C216.567 23.1393 215.563 23.2487 215.314 23.2758C215.285 23.279 215.266 23.281 215.261 23.281C213.565 23.5106 212.367 23.826 211.601 24.2244C210.624 24.739 210.137 25.5165 210.137 26.5484C210.123 26.8997 210.191 27.2494 210.335 27.57C210.479 27.8907 210.695 28.1736 210.967 28.3966C213.014 29.8574 215.574 28.5487 216.24 27.8432Z" fill="#838284"/>
</g>
<defs>
<clipPath id="clip0">
<rect width="248" height="40" fill="white"/>
</clipPath>
</defs>
</svg>
