<svg width="104" height="104" viewBox="0 0 104 104" fill="none" xmlns="http://www.w3.org/2000/svg">
<g filter="url(#filter0_d)">
<circle cx="52" cy="44" r="24" fill="white"/>
</g>
<path d="M51.3 38.2004L46.3 43.2004C45.9 43.6004 45.9 44.2004 46.3 44.6004C46.7 45.0004 47.3 45.0004 47.7 44.6004L51 41.3004L51 48.9004C51 49.5004 51.4 49.9004 52 49.9004C52.6 49.9004 53 49.5004 53 48.9004L53 41.3004L56.3 44.6004C56.7 45.0004 57.3 45.0004 57.7 44.6004C58.1 44.2004 58.1 43.6004 57.7 43.2004L52.7 38.2004C52.4 37.8004 51.7 37.8004 51.3 38.2004Z" fill="#0A0A0A"/>
<defs>
<filter id="filter0_d" x="0" y="0" width="104" height="104" filterUnits="userSpaceOnUse" color-interpolation-filters="sRGB">
<feFlood flood-opacity="0" result="BackgroundImageFix"/>
<feColorMatrix in="SourceAlpha" type="matrix" values="0 0 0 0 0 0 0 0 0 0 0 0 0 0 0 0 0 0 127 0" result="hardAlpha"/>
<feOffset dy="8"/>
<feGaussianBlur stdDeviation="14"/>
<feColorMatrix type="matrix" values="0 0 0 0 0.185639 0 0 0 0 0.274699 0 0 0 0 0.40829 0 0 0 0.16 0"/>
<feBlend mode="normal" in2="BackgroundImageFix" result="effect1_dropShadow"/>
<feBlend mode="normal" in="SourceGraphic" in2="effect1_dropShadow" result="shape"/>
</filter>
</defs>
</svg>
