<svg width="36" height="36" viewBox="0 0 36 36" fill="none" xmlns="http://www.w3.org/2000/svg">
<circle cx="18" cy="18" r="18" fill="white"/>
<path d="M17.5333 14.1336L14.2 17.4669C13.9333 17.7336 13.9333 18.1336 14.2 18.4003C14.4667 18.6669 14.8667 18.6669 15.1333 18.4003L17.3333 16.2003L17.3333 21.2669C17.3333 21.6669 17.6 21.9336 18 21.9336C18.4 21.9336 18.6667 21.6669 18.6667 21.2669L18.6667 16.2003L20.8667 18.4003C21.1333 18.6669 21.5333 18.6669 21.8 18.4003C22.0667 18.1336 22.0667 17.7336 21.8 17.4669L18.4667 14.1336C18.2667 13.8669 17.8 13.8669 17.5333 14.1336Z" fill="#0A0A0A"/>
</svg>
