<svg width="169" height="40" viewBox="0 0 169 40" fill="none" xmlns="http://www.w3.org/2000/svg">
<path d="M29.1348 10.2112C29.497 8.89262 30.2112 7.87153 31.2774 7.14792C32.3435 6.42431 33.5773 6.0625 34.9788 6.0625V13.8158C33.4211 13.6098 32.0574 13.9136 30.8877 14.7275C29.7179 15.5413 29.1328 16.8401 29.1322 18.6238V25.834H21.925V6.44846H29.1348V10.2112Z" fill="#838284"/>
<path d="M43.1637 18.5848C43.7869 19.8754 45.1105 20.5207 47.1346 20.5207C48.3289 20.5207 49.4331 20.1071 50.4472 19.2799L55.1624 23.2347C53.2138 25.3304 50.4598 26.3783 46.9002 26.3783C43.5754 26.3783 40.9064 25.4154 38.8935 23.4897C36.8805 21.5639 35.8735 19.141 35.8723 16.221C35.8723 13.2747 36.8533 10.8192 38.8154 8.85446C40.7774 6.88971 43.2518 5.90762 46.2384 5.9082C49.1999 5.9082 51.6353 6.87108 53.5447 8.79682C55.4541 10.7226 56.4102 13.1461 56.4132 16.0673C56.4133 16.9165 56.3086 17.7626 56.1016 18.5865L43.1637 18.5848ZM43.047 13.9715H49.5923C49.1499 12.4207 48.0966 11.6453 46.4324 11.6453C44.7466 11.6453 43.6181 12.4207 43.047 13.9715Z" fill="#838284"/>
<path d="M71.9219 6.45027H79.1299V25.8358H71.9219V24.0894C70.6749 25.614 68.9344 26.3764 66.7002 26.3764C64.0752 26.3764 61.9318 25.4071 60.2699 23.4685C58.6081 21.53 57.7766 19.0876 57.7754 16.1413C57.7754 13.195 58.6069 10.7526 60.2699 8.81408C61.933 6.87553 64.0764 5.90625 66.7002 5.90625C68.9344 5.90625 70.6749 6.66886 71.9219 8.19409V6.45027ZM65.9401 18.74C66.5756 19.4386 67.4133 19.7879 68.4531 19.7879C69.4929 19.7879 70.3309 19.4386 70.9669 18.74C71.6024 18.0414 71.9208 17.1755 71.9219 16.1422C71.9231 15.1089 71.6048 14.2432 70.9669 13.5452C70.3297 12.8466 69.4918 12.4973 68.4531 12.4973C67.4144 12.4973 66.5768 12.8466 65.9401 13.5452C65.3029 14.2438 64.9846 15.1094 64.9851 16.1422C64.9857 17.1749 65.3041 18.0409 65.9401 18.74Z" fill="#838284"/>
<path d="M95.1067 6.4502V13.2727H91.0155V17.4642C91.0155 18.1103 91.1715 18.5886 91.4833 18.8989C91.7952 19.2091 92.2563 19.3838 92.8667 19.4228C93.613 19.4614 94.3611 19.455 95.1067 19.4036V25.8392C91.0287 26.4074 88.1257 26.0581 86.3977 24.7914C84.6697 23.5246 83.8058 21.2103 83.8058 17.8484V13.2727H81.0786V6.4502H95.1067Z" fill="#838284"/>
<path d="M104.85 6.4502V26.0977H97.6406V6.4502H104.85Z" fill="#838284"/>
<path d="M120.632 6.4502H128.62L121.216 25.8357H113.812L106.407 6.4502H114.395L117.512 16.143L120.632 6.4502Z" fill="#838284"/>
<path d="M135.635 18.5851C136.259 19.878 137.583 20.5242 139.61 20.5236C140.805 20.5236 141.909 20.11 142.922 19.2828L147.636 23.2376C145.687 25.3334 142.933 26.3812 139.374 26.3812C136.049 26.3812 133.38 25.4184 131.367 23.4926C129.354 21.5669 128.347 19.144 128.346 16.2239C128.346 13.2776 129.327 10.8221 131.289 8.85739C133.251 6.89264 135.725 5.91055 138.712 5.91113C141.673 5.91113 144.109 6.87401 146.018 8.79975C147.927 10.7255 148.883 13.1481 148.884 16.0676C148.884 16.9169 148.78 17.763 148.572 18.5868L135.635 18.5851ZM135.523 13.9719H142.069C141.627 12.421 140.573 11.6456 138.909 11.6456C137.22 11.6456 136.091 12.421 135.523 13.9719Z" fill="#838284"/>
<path d="M9.87988 26.4473L10.0309 26.7136C10.0826 26.7136 10.1336 26.7136 10.1853 26.7136C10.2213 26.7136 10.2564 26.7136 10.2915 26.7136L9.87988 26.4473Z" fill="#838284"/>
<path d="M20.3723 16.5825C20.3759 14.2224 19.5475 11.9359 18.0314 10.1207C19.6315 9.07279 20.3723 6.45313 20.3723 6.45313H10.1906C8.23699 6.45243 6.32442 7.01063 4.68085 8.06118C3.03727 9.11174 1.73203 10.6103 0.920711 12.3783C0.109391 14.1463 -0.17378 16.1091 0.104952 18.0327C0.383685 19.9564 1.21256 21.7597 2.49278 23.2277C1.55225 24.3095 0.85266 25.5772 0.440061 26.9473C0.0274619 28.3175 -0.0887938 29.759 0.0989455 31.177C0.286685 32.5951 0.774162 33.9575 1.52929 35.1746C2.28443 36.3918 3.29009 37.436 4.4801 38.2386C5.67011 39.0412 7.01748 39.584 8.43354 39.8312C9.8496 40.0785 11.3022 40.0246 12.6958 39.673C14.0894 39.3215 15.3924 38.6804 16.519 37.7918C17.6456 36.9032 18.5703 35.7874 19.2322 34.5176L13.109 31.0789C12.891 31.599 12.5367 32.0513 12.083 32.3888C11.6293 32.7262 11.0929 32.9363 10.5298 32.9972C9.96668 33.0581 9.39746 32.9675 8.88151 32.7349C8.36557 32.5023 7.92181 32.1363 7.59655 31.6749C7.27128 31.2136 7.07642 30.6739 7.0323 30.112C6.98818 29.5502 7.09641 28.9869 7.34571 28.4809C7.595 27.9749 7.97623 27.5447 8.4496 27.2353C8.92298 26.9258 9.47116 26.7484 10.037 26.7215V26.7136L9.88598 26.4473L10.2994 26.7136C12.9812 26.6851 15.5433 25.6051 17.4294 23.7082C19.3154 21.8113 20.373 19.2506 20.3723 16.5825ZM7.02192 16.5825C7.02192 15.9608 7.20724 15.353 7.55445 14.836C7.90166 14.3191 8.39516 13.9161 8.97255 13.6782C9.54994 13.4403 10.1853 13.378 10.7982 13.4993C11.4112 13.6206 11.9742 13.92 12.4161 14.3597C12.8581 14.7993 13.159 15.3594 13.2809 15.9692C13.4029 16.579 13.3403 17.2111 13.1011 17.7855C12.8619 18.3599 12.4569 18.8509 11.9373 19.1963C11.4177 19.5417 10.8067 19.7261 10.1818 19.7261C9.34373 19.7261 8.54001 19.3949 7.94742 18.8054C7.35483 18.2158 7.02192 17.4162 7.02192 16.5825Z" fill="#838284"/>
<path d="M165.005 18.4883C164.215 18.4883 163.443 18.7214 162.786 19.158C162.129 19.5947 161.617 20.2154 161.315 20.9415C161.012 21.6677 160.933 22.4667 161.088 23.2376C161.242 24.0085 161.622 24.7166 162.181 25.2724C162.739 25.8282 163.451 26.2067 164.226 26.36C165.001 26.5133 165.804 26.4346 166.534 26.1339C167.264 25.8331 167.888 25.3237 168.327 24.6702C168.766 24.0167 169 23.2483 169 22.4623C169 21.4083 168.579 20.3975 167.83 19.6523C167.081 18.907 166.065 18.4883 165.005 18.4883ZM165.005 23.6962C164.76 23.6967 164.519 23.6247 164.315 23.4893C164.111 23.3539 163.951 23.1612 163.857 22.9356C163.762 22.71 163.738 22.4616 163.785 22.2219C163.833 21.9821 163.951 21.7619 164.124 21.589C164.298 21.4161 164.519 21.2983 164.76 21.2505C165.001 21.2028 165.251 21.2272 165.478 21.3207C165.705 21.4142 165.899 21.5726 166.035 21.7758C166.171 21.9791 166.244 22.218 166.244 22.4623C166.244 22.7893 166.113 23.1028 165.881 23.3342C165.649 23.5655 165.334 23.6957 165.005 23.6962Z" fill="#838284"/>
<path d="M10.2933 26.7136L9.87988 26.4473L10.0309 26.7136V26.7215C10.0807 26.7164 10.1308 26.7143 10.1809 26.7153C10.2203 26.7143 10.2596 26.7164 10.2986 26.7215L10.2933 26.7136Z" fill="#838284"/>
<path d="M10.3047 26.7205C10.2657 26.7154 10.2264 26.7133 10.1871 26.7144C10.1369 26.7134 10.0868 26.7154 10.037 26.7205V26.7126L9.88599 26.4463L10.2994 26.7126L10.3047 26.7205Z" fill="#838284"/>
<path d="M10.3053 -0.000182487L8.23291 2.06152L10.3053 4.12323L12.3776 2.06152L10.3053 -0.000182487Z" fill="#838284"/>
<path d="M158.37 23.0737L160.803 24.4621L160.647 24.7188C160.289 25.3308 159.771 25.8353 159.149 26.1789C158.511 26.5352 157.79 26.72 157.058 26.715C155.836 26.715 154.805 26.3037 153.997 25.4925C153.188 24.6813 152.78 23.6631 152.78 22.4589C152.78 21.2548 153.188 20.2418 153.997 19.4306C154.806 18.6194 155.84 18.2081 157.058 18.2081C157.79 18.2035 158.511 18.3882 159.149 18.7443C159.769 19.0856 160.286 19.5857 160.647 20.1929L160.803 20.4497L158.376 21.8381L158.232 21.5578C158.131 21.3624 157.972 21.2022 157.777 21.0985C157.557 20.9791 157.309 20.9189 157.058 20.9238C156.603 20.9238 156.243 21.067 155.967 21.3526C155.692 21.6381 155.555 22.0084 155.555 22.4616C155.555 22.9148 155.686 23.2841 155.967 23.5758C156.249 23.8675 156.603 24.0054 157.058 24.0054C157.312 24.0097 157.562 23.948 157.783 23.8264C157.978 23.722 158.135 23.5592 158.232 23.361L158.37 23.0737Z" fill="#838284"/>
<path d="M150.62 26.7149C151.36 26.7149 151.96 26.1183 151.96 25.3823C151.96 24.6464 151.36 24.0498 150.62 24.0498C149.88 24.0498 149.281 24.6464 149.281 25.3823C149.281 26.1183 149.88 26.7149 150.62 26.7149Z" fill="#838284"/>
</svg>
