<svg width="124" height="22" viewBox="0 0 124 22" fill="none" xmlns="http://www.w3.org/2000/svg">
<path d="M14.6081 19.492C13.1194 20.7873 11.1958 21.435 8.83711 21.435C6.47844 21.435 4.54511 20.7873 3.03711 19.492C1.54844 18.1967 0.804109 16.476 0.804109 14.33V0.699999H5.99511V13.837C5.99511 15.5383 6.94244 16.389 8.83711 16.389C10.7318 16.389 11.6791 15.5383 11.6791 13.837V0.699999H16.8701V14.33C16.8701 16.476 16.1161 18.1967 14.6081 19.492ZM36.6884 21H30.8884L25.0594 11.923V21H19.8684V0.699999H25.0594V9.226L30.5984 0.699999H36.3984L29.9604 10.56L36.6884 21ZM60.5097 0.699999L60.1907 2.614H53.9267L50.7077 21H48.6777L51.8967 2.614H45.6907L46.0097 0.699999H60.5097ZM66.0253 6.152C68.21 6.152 69.8727 6.906 71.0133 8.414C72.1733 9.922 72.5407 11.72 72.1153 13.808C72.0573 14.156 71.98 14.4557 71.8833 14.707H59.2103C59.1523 16.1763 59.5583 17.346 60.4283 18.216C61.3177 19.0667 62.526 19.492 64.0533 19.492C66.2767 19.492 67.9877 18.6607 69.1863 16.998L70.6943 17.984C69.9983 19.0473 69.0123 19.8787 67.7363 20.478C66.4797 21.058 65.165 21.348 63.7923 21.348C61.5497 21.348 59.829 20.594 58.6303 19.086C57.4317 17.578 57.0257 15.7027 57.4123 13.46C57.7797 11.3333 58.7753 9.58367 60.3993 8.211C62.0427 6.83833 63.918 6.152 66.0253 6.152ZM59.5003 12.851H70.2883C70.4043 11.2657 70.0563 10.067 69.2443 9.255C68.4323 8.42367 67.3207 8.008 65.9093 8.008C64.382 8.008 63.0383 8.45267 61.8783 9.342C60.7377 10.212 59.945 11.3817 59.5003 12.851ZM88.9639 6.5H90.8779L88.3259 21H86.4119L86.8469 18.535C85.2809 20.4103 83.1832 21.348 80.5539 21.348C78.5239 21.348 76.8902 20.565 75.6529 18.999C74.4155 17.433 73.9805 15.5867 74.3479 13.46C74.7539 11.14 75.7495 9.342 77.3349 8.066C78.9395 6.79 80.7085 6.152 82.6419 6.152C83.8985 6.152 85.0489 6.45167 86.0929 7.051C87.1369 7.631 87.9102 8.472 88.4129 9.574L88.9639 6.5ZM81.0179 19.492C82.6032 19.492 84.0242 18.9893 85.2809 17.984C86.5376 16.9593 87.3206 15.664 87.6299 14.098L87.6879 13.75C87.9586 11.9713 87.5912 10.5697 86.5859 9.545C85.5999 8.52033 84.3335 8.008 82.7869 8.008C81.2789 8.008 79.8869 8.501 78.6109 9.487C77.3542 10.473 76.5712 11.8457 76.2619 13.605C75.9912 15.229 76.3102 16.621 77.2189 17.781C78.1275 18.9217 79.3939 19.492 81.0179 19.492ZM110.415 6.152C111.942 6.152 113.141 6.674 114.011 7.718C114.881 8.762 115.161 10.1733 114.852 11.952L113.257 21H111.343L112.938 11.952C113.151 10.6953 112.996 9.72867 112.474 9.052C111.952 8.356 111.14 8.008 110.038 8.008C108.897 8.008 107.892 8.37533 107.022 9.11C106.171 9.84467 105.582 11.0047 105.253 12.59L103.774 21H101.86L103.455 11.952C103.668 10.676 103.532 9.69967 103.049 9.023C102.566 8.34633 101.802 8.008 100.758 8.008C99.598 8.008 98.554 8.39467 97.626 9.168C96.698 9.922 96.0697 11.0917 95.741 12.677L94.291 21H92.377L94.929 6.5H96.843L96.524 8.385C97.8194 6.89633 99.395 6.152 101.251 6.152C102.218 6.152 103.049 6.384 103.745 6.848C104.441 7.312 104.934 7.979 105.224 8.849C106.577 7.051 108.308 6.152 110.415 6.152ZM120.41 21.406C119.559 21.406 118.834 21.116 118.235 20.536C117.655 19.9367 117.365 19.2213 117.365 18.39C117.365 17.5587 117.665 16.853 118.264 16.273C118.863 15.6737 119.579 15.374 120.41 15.374C121.241 15.374 121.947 15.6737 122.527 16.273C123.126 16.853 123.426 17.5587 123.426 18.39C123.426 19.2213 123.126 19.9367 122.527 20.536C121.947 21.116 121.241 21.406 120.41 21.406Z" fill="#838284"/>
</svg>
