<svg width="11" height="11" viewBox="0 0 11 11" fill="none" xmlns="http://www.w3.org/2000/svg">
<path d="M10.9333 0.516667C10.8487 0.313042 10.6869 0.151229 10.4833 0.0666666C10.3831 0.0239658 10.2755 0.00131666 10.1666 0H1.83328C1.61227 0 1.40031 0.0877975 1.24403 0.244078C1.08775 0.400358 0.999949 0.61232 0.999949 0.833333C0.999949 1.05435 1.08775 1.26631 1.24403 1.42259C1.40031 1.57887 1.61227 1.66667 1.83328 1.66667H8.15828L1.24162 8.575C1.16351 8.65247 1.10151 8.74464 1.05921 8.84618C1.0169 8.94773 0.995117 9.05666 0.995117 9.16667C0.995117 9.27668 1.0169 9.3856 1.05921 9.48715C1.10151 9.5887 1.16351 9.68086 1.24162 9.75833C1.31908 9.83644 1.41125 9.89844 1.5128 9.94074C1.61435 9.98305 1.72327 10.0048 1.83328 10.0048C1.94329 10.0048 2.05221 9.98305 2.15376 9.94074C2.25531 9.89844 2.34748 9.83644 2.42495 9.75833L9.33328 2.84167V9.16667C9.33328 9.38768 9.42108 9.59964 9.57736 9.75592C9.73364 9.9122 9.9456 10 10.1666 10C10.3876 10 10.5996 9.9122 10.7559 9.75592C10.9122 9.59964 10.9999 9.38768 10.9999 9.16667V0.833333C10.9986 0.724436 10.976 0.616852 10.9333 0.516667Z" fill="#0A0A0A"/>
</svg>
