<svg width="260" height="48" viewBox="0 0 260 48" fill="none" xmlns="http://www.w3.org/2000/svg">
<rect width="260" height="48" fill="#0A0A0A"/>
<path d="M65.7031 16.6002H75.2431V18.9202H68.3231V22.3602H74.1031V24.6202H68.3231V30.0002H65.7031V16.6002Z" fill="#838284"/>
<path d="M76.8805 16.6602C76.8805 16.2468 77.0271 15.8935 77.3205 15.6002C77.6271 15.3068 77.9938 15.1602 78.4205 15.1602C78.8471 15.1602 79.2071 15.3068 79.5005 15.6002C79.8071 15.8935 79.9605 16.2468 79.9605 16.6602C79.9605 17.0868 79.8071 17.4468 79.5005 17.7402C79.2071 18.0202 78.8471 18.1602 78.4205 18.1602C77.9938 18.1602 77.6271 18.0202 77.3205 17.7402C77.0271 17.4468 76.8805 17.0868 76.8805 16.6602ZM77.1605 19.5602H79.6805V30.0002H77.1605V19.5602Z" fill="#838284"/>
<path d="M82.2386 19.5602H84.7586V21.2202C85.1453 20.6468 85.6386 20.1935 86.2386 19.8602C86.8386 19.5268 87.5253 19.3602 88.2986 19.3602C88.8586 19.3602 89.3653 19.4535 89.8186 19.6402C90.2719 19.8268 90.6519 20.0935 90.9586 20.4402C91.2786 20.7735 91.5186 21.1735 91.6786 21.6402C91.8519 22.1068 91.9386 22.6202 91.9386 23.1802V30.0002H89.4186V24.0002C89.4186 23.3068 89.2253 22.7735 88.8386 22.4002C88.4519 22.0268 87.9586 21.8402 87.3586 21.8402C86.9853 21.8402 86.6386 21.9268 86.3186 22.1002C86.0119 22.2602 85.7453 22.4735 85.5186 22.7402C85.2919 23.0068 85.1119 23.3202 84.9786 23.6802C84.8453 24.0268 84.7719 24.3802 84.7586 24.7402V30.0002H82.2386V19.5602Z" fill="#838284"/>
<path d="M104.724 30.0002H102.204V28.6202C101.884 29.1135 101.458 29.5002 100.924 29.7802C100.391 30.0468 99.7242 30.1802 98.9242 30.1802C98.1909 30.1802 97.5109 30.0468 96.8842 29.7802C96.2709 29.5002 95.7376 29.1202 95.2842 28.6402C94.8309 28.1468 94.4776 27.5735 94.2242 26.9202C93.9842 26.2535 93.8642 25.5402 93.8642 24.7802C93.8642 24.0068 93.9842 23.2935 94.2242 22.6402C94.4776 21.9735 94.8309 21.4002 95.2842 20.9202C95.7376 20.4268 96.2709 20.0468 96.8842 19.7802C97.5109 19.5002 98.1976 19.3602 98.9442 19.3602C99.7442 19.3602 100.404 19.5002 100.924 19.7802C101.458 20.0468 101.884 20.4268 102.204 20.9202V19.5602H104.724V30.0002ZM102.204 24.3002C102.111 23.6068 101.811 23.0268 101.304 22.5602C100.798 22.0802 100.151 21.8402 99.3642 21.8402C98.9242 21.8402 98.5242 21.9202 98.1642 22.0802C97.8042 22.2402 97.4976 22.4535 97.2442 22.7202C97.0042 22.9868 96.8176 23.3002 96.6842 23.6602C96.5509 24.0202 96.4842 24.4002 96.4842 24.8002C96.4842 25.1868 96.5509 25.5535 96.6842 25.9002C96.8176 26.2468 97.0042 26.5535 97.2442 26.8202C97.4976 27.0868 97.8042 27.3002 98.1642 27.4602C98.5242 27.6202 98.9242 27.7002 99.3642 27.7002C99.7509 27.7002 100.111 27.6402 100.444 27.5202C100.778 27.3868 101.064 27.2135 101.304 27.0002C101.558 26.7735 101.758 26.5135 101.904 26.2202C102.064 25.9135 102.164 25.5935 102.204 25.2602V24.3002Z" fill="#838284"/>
<path d="M107.278 19.5602H109.798V21.2202C110.184 20.6468 110.678 20.1935 111.278 19.8602C111.878 19.5268 112.564 19.3602 113.338 19.3602C113.898 19.3602 114.404 19.4535 114.858 19.6402C115.311 19.8268 115.691 20.0935 115.998 20.4402C116.318 20.7735 116.558 21.1735 116.718 21.6402C116.891 22.1068 116.978 22.6202 116.978 23.1802V30.0002H114.458V24.0002C114.458 23.3068 114.264 22.7735 113.878 22.4002C113.491 22.0268 112.998 21.8402 112.398 21.8402C112.024 21.8402 111.678 21.9268 111.358 22.1002C111.051 22.2602 110.784 22.4735 110.558 22.7402C110.331 23.0068 110.151 23.3202 110.018 23.6802C109.884 24.0268 109.811 24.3802 109.798 24.7402V30.0002H107.278V19.5602Z" fill="#838284"/>
<path d="M119.283 22.5602C119.283 21.5468 119.657 20.7602 120.403 20.2002C121.15 19.6402 122.19 19.3602 123.523 19.3602C124.883 19.3602 125.923 19.6468 126.643 20.2202C127.377 20.7935 127.757 21.6002 127.783 22.6402H125.223C125.21 22.2535 125.05 21.9468 124.743 21.7202C124.45 21.4802 124.05 21.3602 123.543 21.3602C122.983 21.3602 122.557 21.4602 122.263 21.6602C121.97 21.8468 121.823 22.1202 121.823 22.4802C121.823 22.8535 121.977 23.1335 122.283 23.3202C122.59 23.4935 122.97 23.6335 123.423 23.7402C123.89 23.8468 124.39 23.9535 124.923 24.0602C125.457 24.1535 125.95 24.3068 126.403 24.5202C126.87 24.7202 127.257 25.0135 127.563 25.4002C127.87 25.7735 128.023 26.2935 128.023 26.9602C128.023 27.9602 127.65 28.7468 126.903 29.3202C126.17 29.8802 125.077 30.1602 123.623 30.1602C122.13 30.1602 120.997 29.8602 120.223 29.2602C119.45 28.6602 119.063 27.8535 119.063 26.8402H121.623C121.743 27.7202 122.423 28.1602 123.663 28.1602C124.85 28.1602 125.443 27.8002 125.443 27.0802C125.443 26.7202 125.29 26.4535 124.983 26.2802C124.677 26.1068 124.297 25.9735 123.843 25.8802C123.39 25.7735 122.897 25.6735 122.363 25.5802C121.83 25.4868 121.337 25.3335 120.883 25.1202C120.43 24.9068 120.05 24.6068 119.743 24.2202C119.437 23.8202 119.283 23.2668 119.283 22.5602Z" fill="#838284"/>
<path d="M129.83 16.6602C129.83 16.2468 129.976 15.8935 130.27 15.6002C130.576 15.3068 130.943 15.1602 131.37 15.1602C131.796 15.1602 132.156 15.3068 132.45 15.6002C132.756 15.8935 132.91 16.2468 132.91 16.6602C132.91 17.0868 132.756 17.4468 132.45 17.7402C132.156 18.0202 131.796 18.1602 131.37 18.1602C130.943 18.1602 130.576 18.0202 130.27 17.7402C129.976 17.4468 129.83 17.0868 129.83 16.6602ZM130.11 19.5602H132.63V30.0002H130.11V19.5602Z" fill="#838284"/>
<path d="M145.408 30.0002H142.888V28.6202C142.568 29.1135 142.141 29.5002 141.608 29.7802C141.074 30.0468 140.408 30.1802 139.608 30.1802C138.874 30.1802 138.194 30.0468 137.568 29.7802C136.954 29.5002 136.421 29.1202 135.968 28.6402C135.514 28.1468 135.161 27.5735 134.908 26.9202C134.668 26.2535 134.548 25.5402 134.548 24.7802C134.548 24.0068 134.668 23.2935 134.908 22.6402C135.161 21.9735 135.514 21.4002 135.968 20.9202C136.421 20.4268 136.954 20.0468 137.568 19.7802C138.194 19.5002 138.881 19.3602 139.628 19.3602C140.428 19.3602 141.088 19.5002 141.608 19.7802C142.141 20.0468 142.568 20.4268 142.888 20.9202V19.5602H145.408V30.0002ZM142.888 24.3002C142.794 23.6068 142.494 23.0268 141.988 22.5602C141.481 22.0802 140.834 21.8402 140.048 21.8402C139.608 21.8402 139.208 21.9202 138.848 22.0802C138.488 22.2402 138.181 22.4535 137.928 22.7202C137.688 22.9868 137.501 23.3002 137.368 23.6602C137.234 24.0202 137.168 24.4002 137.168 24.8002C137.168 25.1868 137.234 25.5535 137.368 25.9002C137.501 26.2468 137.688 26.5535 137.928 26.8202C138.181 27.0868 138.488 27.3002 138.848 27.4602C139.208 27.6202 139.608 27.7002 140.048 27.7002C140.434 27.7002 140.794 27.6402 141.128 27.5202C141.461 27.3868 141.748 27.2135 141.988 27.0002C142.241 26.7735 142.441 26.5135 142.588 26.2202C142.748 25.9135 142.848 25.5935 142.888 25.2602V24.3002Z" fill="#838284"/>
<path d="M147.961 15.6002H150.481V30.0002H147.961V15.6002Z" fill="#838284"/>
<path d="M153.039 15.6002H155.559V23.4602H156.539L159.139 19.5602H162.279L158.879 24.6602L162.739 30.0002H159.459L156.599 25.8402H155.559V30.0002H153.039V15.6002Z" fill="#838284"/>
<path d="M173.677 30.0002H171.157V28.3202C170.77 28.9068 170.277 29.3668 169.677 29.7002C169.077 30.0335 168.39 30.2002 167.617 30.2002C167.057 30.2002 166.55 30.1068 166.097 29.9202C165.644 29.7202 165.257 29.4535 164.937 29.1202C164.63 28.7735 164.39 28.3668 164.217 27.9002C164.057 27.4335 163.977 26.9202 163.977 26.3602V19.5602H166.497V25.5602C166.497 26.2402 166.69 26.7735 167.077 27.1602C167.464 27.5335 167.957 27.7202 168.557 27.7202C168.93 27.7202 169.27 27.6402 169.577 27.4802C169.897 27.3068 170.17 27.0868 170.397 26.8202C170.624 26.5535 170.804 26.2468 170.937 25.9002C171.07 25.5402 171.144 25.1802 171.157 24.8202V19.5602H173.677V30.0002Z" fill="#838284"/>
<path d="M175.923 28.7202C175.923 28.3202 176.062 27.9802 176.342 27.7002C176.636 27.4068 176.989 27.2602 177.403 27.2602C177.803 27.2602 178.143 27.4068 178.423 27.7002C178.716 27.9802 178.863 28.3202 178.863 28.7202C178.863 29.1335 178.716 29.4868 178.423 29.7802C178.143 30.0602 177.803 30.2002 177.403 30.2002C176.989 30.2002 176.636 30.0602 176.342 29.7802C176.062 29.4868 175.923 29.1335 175.923 28.7202Z" fill="#838284"/>
<path d="M180.075 24.7802C180.075 24.0068 180.215 23.2935 180.495 22.6402C180.775 21.9735 181.155 21.4002 181.635 20.9202C182.128 20.4268 182.708 20.0468 183.375 19.7802C184.042 19.5002 184.762 19.3602 185.535 19.3602C186.215 19.3602 186.848 19.4668 187.435 19.6802C188.035 19.8802 188.568 20.1668 189.035 20.5402C189.502 20.9002 189.888 21.3402 190.195 21.8602C190.502 22.3802 190.702 22.9535 190.795 23.5802H188.095C187.922 23.0602 187.615 22.6402 187.175 22.3202C186.735 21.9868 186.195 21.8202 185.555 21.8202C185.128 21.8202 184.735 21.9002 184.375 22.0602C184.028 22.2202 183.728 22.4402 183.475 22.7202C183.235 22.9868 183.042 23.3002 182.895 23.6602C182.762 24.0068 182.695 24.3802 182.695 24.7802C182.695 25.1668 182.762 25.5402 182.895 25.9002C183.042 26.2468 183.235 26.5602 183.475 26.8402C183.728 27.1068 184.028 27.3202 184.375 27.4802C184.735 27.6402 185.128 27.7202 185.555 27.7202C186.182 27.7202 186.715 27.5602 187.155 27.2402C187.608 26.9202 187.922 26.5068 188.095 26.0002H190.795C190.688 26.6135 190.482 27.1802 190.175 27.7002C189.868 28.2068 189.482 28.6468 189.015 29.0202C188.562 29.3802 188.035 29.6668 187.435 29.8802C186.848 30.0802 186.215 30.1802 185.535 30.1802C184.762 30.1802 184.042 30.0468 183.375 29.7802C182.708 29.5002 182.128 29.1202 181.635 28.6402C181.155 28.1468 180.775 27.5735 180.495 26.9202C180.215 26.2535 180.075 25.5402 180.075 24.7802Z" fill="#838284"/>
<path d="M192.087 24.7802C192.087 24.0068 192.227 23.2935 192.507 22.6402C192.787 21.9735 193.167 21.4002 193.647 20.9202C194.14 20.4268 194.72 20.0468 195.387 19.7802C196.054 19.5002 196.774 19.3602 197.547 19.3602C198.32 19.3602 199.04 19.5002 199.707 19.7802C200.374 20.0468 200.954 20.4268 201.447 20.9202C201.94 21.4002 202.327 21.9735 202.607 22.6402C202.887 23.2935 203.027 24.0068 203.027 24.7802C203.027 25.5402 202.887 26.2535 202.607 26.9202C202.327 27.5735 201.94 28.1468 201.447 28.6402C200.954 29.1202 200.374 29.5002 199.707 29.7802C199.04 30.0468 198.32 30.1802 197.547 30.1802C196.774 30.1802 196.054 30.0468 195.387 29.7802C194.72 29.5002 194.14 29.1202 193.647 28.6402C193.154 28.1468 192.767 27.5735 192.487 26.9202C192.22 26.2535 192.087 25.5402 192.087 24.7802ZM194.727 24.7802C194.727 25.1668 194.794 25.5402 194.927 25.9002C195.06 26.2468 195.247 26.5535 195.487 26.8202C195.74 27.0868 196.04 27.3002 196.387 27.4602C196.747 27.6202 197.14 27.7002 197.567 27.7002C197.994 27.7002 198.38 27.6202 198.727 27.4602C199.074 27.3002 199.367 27.0868 199.607 26.8202C199.86 26.5535 200.054 26.2468 200.187 25.9002C200.32 25.5402 200.387 25.1668 200.387 24.7802C200.387 24.3935 200.32 24.0202 200.187 23.6602C200.054 23.3002 199.86 22.9868 199.607 22.7202C199.367 22.4535 199.074 22.2402 198.727 22.0802C198.38 21.9202 197.994 21.8402 197.567 21.8402C197.14 21.8402 196.747 21.9202 196.387 22.0802C196.04 22.2402 195.74 22.4535 195.487 22.7202C195.247 22.9868 195.06 23.3002 194.927 23.6602C194.794 24.0202 194.727 24.3935 194.727 24.7802Z" fill="#838284"/>
<path d="M204.953 19.5602H207.473V21.1202C207.833 20.5602 208.28 20.1268 208.813 19.8202C209.36 19.5135 209.98 19.3602 210.673 19.3602C211.433 19.3602 212.067 19.5535 212.573 19.9402C213.093 20.3135 213.48 20.8202 213.733 21.4602C214.107 20.8068 214.587 20.2935 215.173 19.9202C215.773 19.5468 216.46 19.3602 217.233 19.3602C217.753 19.3602 218.22 19.4535 218.633 19.6402C219.06 19.8268 219.42 20.0935 219.713 20.4402C220.007 20.7735 220.227 21.1735 220.373 21.6402C220.533 22.1068 220.613 22.6202 220.613 23.1802V30.0002H218.093V24.0002C218.093 23.3068 217.92 22.7735 217.573 22.4002C217.24 22.0268 216.82 21.8402 216.313 21.8402C215.98 21.8402 215.673 21.9268 215.393 22.1002C215.127 22.2602 214.893 22.4735 214.693 22.7402C214.507 23.0068 214.353 23.3202 214.233 23.6802C214.127 24.0268 214.067 24.3802 214.053 24.7402V30.0002H211.533V24.0002C211.533 23.3068 211.36 22.7735 211.013 22.4002C210.68 22.0268 210.253 21.8402 209.733 21.8402C209.413 21.8402 209.113 21.9268 208.833 22.1002C208.567 22.2602 208.333 22.4735 208.133 22.7402C207.933 23.0068 207.773 23.3202 207.653 23.6802C207.547 24.0268 207.487 24.3802 207.473 24.7402V30.0002H204.953V19.5602Z" fill="#838284"/>
<path fill-rule="evenodd" clip-rule="evenodd" d="M56 6L38 15.587V34.8261L42.5534 37.2426L51.5178 42V32.413L56 30V6ZM42.5534 37.2426L42.5534 18L51.5178 13.1739V18L47.0356 20.4131V25.1739L51.5178 22.8261V27.587L47.0356 30V34.7609L42.5534 37.2426Z" fill="#838284"/>
</svg>
