<svg width="260" height="48" viewBox="0 0 260 48" fill="none" xmlns="http://www.w3.org/2000/svg">
<rect width="260" height="48" fill="#0A0A0A"/>
<path d="M157.358 18.9614V21.3091H159.017V29.0938C159.017 30.4721 159.366 31.4675 160.064 32.0801C160.761 32.6927 161.765 32.999 163.075 32.999H165.373V30.5742H163.586C162.99 30.5742 162.565 30.4636 162.31 30.2424C162.072 30.0042 161.952 29.6213 161.952 29.0938V21.3091H165.373V18.9614H157.358Z" fill="#838284"/>
<path d="M168.054 18.9614V32.999H170.964V18.9614H168.054Z" fill="#838284"/>
<path d="M173.135 18.9614L178.46 32.999H181.931L187.291 18.9354H184.203L180.221 30.3955L176.239 18.9354H173.179V18.9614H173.135Z" fill="#838284"/>
<path d="M108.808 20.3647C108.349 19.4799 107.711 18.8163 106.894 18.3739C106.077 17.9145 105.133 17.6847 104.061 17.6847C102.887 17.6847 101.84 17.9485 100.921 18.476C100.003 19.0035 99.2795 19.7522 98.752 20.7221C98.2415 21.692 97.9863 22.815 97.9863 24.0912C97.9863 25.3674 98.2415 26.4989 98.752 27.4858C99.2795 28.4557 100.003 29.2044 100.921 29.7319C101.84 30.2594 102.887 30.5232 104.061 30.5232C105.643 30.5232 106.928 30.0807 107.915 29.1959C108.902 28.3111 109.506 27.1115 109.727 25.5971H103.065V23.2744H112.841V25.546C112.654 26.9243 112.16 28.192 111.361 29.3491C110.578 30.5061 109.549 31.4335 108.272 32.1312C107.013 32.8118 105.609 33.1521 104.061 33.1521C102.393 33.1521 100.87 32.7692 99.4922 32.0035C98.1139 31.2208 97.0164 30.1403 96.1996 28.762C95.3999 27.3837 95 25.8268 95 24.0912C95 22.3556 95.3999 20.7986 96.1996 19.4204C97.0164 18.0421 98.1139 16.9701 99.4922 16.2044C100.887 15.4216 102.41 15.0303 104.061 15.0303C105.95 15.0303 107.626 15.4982 109.089 16.4341C110.569 17.3529 111.641 18.6631 112.305 20.3647H108.808Z" fill="#838284"/>
<path d="M118.621 20.9773C119.046 20.2626 119.608 19.7096 120.305 19.3183C121.02 18.9099 121.862 18.7057 122.832 18.7057V21.7175H122.092C120.952 21.7175 120.084 22.0068 119.488 22.5853C118.91 23.1638 118.621 24.1678 118.621 25.5971V32.999H115.711V18.9354H118.621V20.9773Z" fill="#838284"/>
<path fill-rule="evenodd" clip-rule="evenodd" d="M138.294 27.0519C138.362 26.6265 138.396 26.1501 138.396 25.6226C138.396 24.2613 138.107 23.0617 137.528 22.0238C136.95 20.9688 136.141 20.152 135.104 19.5735C134.066 18.995 132.883 18.7057 131.556 18.7057C130.177 18.7057 128.952 19.0035 127.88 19.599C126.825 20.1946 126 21.0454 125.405 22.1514C124.826 23.2404 124.537 24.5081 124.537 25.9544C124.537 27.4008 124.834 28.6769 125.43 29.783C126.043 30.872 126.876 31.7228 127.931 32.3353C129.003 32.9309 130.211 33.2287 131.556 33.2287C133.206 33.2287 134.585 32.8203 135.691 32.0035C136.814 31.1698 137.588 30.1063 138.013 28.8131H134.874C134.227 30.1233 133.121 30.7784 131.556 30.7784C130.467 30.7784 129.548 30.4381 128.799 29.7574C128.05 29.0768 127.634 28.175 127.548 27.0519H138.294ZM134.21 22.1259C134.959 22.7725 135.342 23.6318 135.359 24.7038H127.574C127.71 23.6147 128.136 22.7554 128.85 22.1259C129.565 21.4793 130.424 21.156 131.428 21.156C132.534 21.156 133.461 21.4793 134.21 22.1259Z" fill="#838284"/>
<path fill-rule="evenodd" clip-rule="evenodd" d="M140.29 25.9034C140.29 24.4911 140.579 23.2404 141.157 22.1514C141.753 21.0624 142.553 20.2201 143.557 19.6245C144.578 19.012 145.701 18.7057 146.926 18.7057C148.032 18.7057 148.993 18.9269 149.81 19.3693C150.644 19.7947 151.307 20.3307 151.801 20.9773V18.9354H154.736V32.999H151.801V30.906C151.307 31.5696 150.635 32.1226 149.784 32.5651C148.934 33.0075 147.964 33.2287 146.875 33.2287C145.667 33.2287 144.561 32.9224 143.557 32.3098C142.553 31.6802 141.753 30.8124 141.157 29.7064C140.579 28.5834 140.29 27.3157 140.29 25.9034ZM151.801 25.9544C151.801 24.9845 151.597 24.1422 151.188 23.4276C150.797 22.7129 150.278 22.1684 149.631 21.7941C148.985 21.4197 148.287 21.2325 147.538 21.2325C146.79 21.2325 146.092 21.4197 145.445 21.7941C144.799 22.1514 144.271 22.6874 143.863 23.402C143.472 24.0997 143.276 24.9335 143.276 25.9034C143.276 26.8733 143.472 27.7241 143.863 28.4557C144.271 29.1874 144.799 29.7489 145.445 30.1403C146.109 30.5147 146.807 30.7018 147.538 30.7018C148.287 30.7018 148.985 30.5147 149.631 30.1403C150.278 29.766 150.797 29.2214 151.188 28.5068C151.597 27.7751 151.801 26.9243 151.801 25.9544Z" fill="#838284"/>
<path fill-rule="evenodd" clip-rule="evenodd" d="M202.38 25.6226C202.38 26.1501 202.346 26.6265 202.278 27.0519H191.532C191.617 28.175 192.034 29.0768 192.783 29.7574C193.532 30.4381 194.45 30.7784 195.539 30.7784C197.105 30.7784 198.211 30.1233 198.858 28.8131H201.997C201.572 30.1063 200.797 31.1698 199.674 32.0035C198.568 32.8203 197.19 33.2287 195.539 33.2287C194.195 33.2287 192.987 32.9309 191.915 32.3353C190.86 31.7228 190.026 30.872 189.414 29.783C188.818 28.6769 188.52 27.4008 188.52 25.9544C188.52 24.5081 188.81 23.2404 189.388 22.1514C189.984 21.0454 190.809 20.1946 191.864 19.599C192.936 19.0035 194.161 18.7057 195.539 18.7057C196.867 18.7057 198.049 18.995 199.087 19.5735C200.125 20.152 200.933 20.9688 201.512 22.0238C202.091 23.0617 202.38 24.2613 202.38 25.6226ZM199.342 24.7038C199.325 23.6318 198.943 22.7725 198.194 22.1259C197.445 21.4793 196.518 21.156 195.412 21.156C194.408 21.156 193.549 21.4793 192.834 22.1259C192.119 22.7554 191.694 23.6147 191.558 24.7038H199.342Z" fill="#838284"/>
<path d="M205.09 32.6416C205.447 32.999 205.89 33.1776 206.417 33.1776C206.928 33.1776 207.362 32.999 207.719 32.6416C208.076 32.2843 208.255 31.8419 208.255 31.3144C208.255 30.7869 208.076 30.3445 207.719 29.9872C207.362 29.6298 206.928 29.4512 206.417 29.4512C205.89 29.4512 205.447 29.6298 205.09 29.9872C204.733 30.3445 204.554 30.7869 204.554 31.3144C204.554 31.8419 204.733 32.2843 205.09 32.6416Z" fill="#838284"/>
<path d="M157.358 18.9614V21.3091H159.017V29.0938C159.017 30.4721 159.366 31.4675 160.064 32.0801C160.761 32.6927 161.765 32.999 163.075 32.999H165.373V30.5742H163.586C162.99 30.5742 162.565 30.4636 162.31 30.2424C162.072 30.0042 161.952 29.6213 161.952 29.0938V21.3091H165.373V18.9614H157.358Z" stroke="#838284" stroke-width="0.5"/>
<path d="M168.054 18.9614V32.999H170.964V18.9614H168.054Z" stroke="#838284" stroke-width="0.5"/>
<path d="M173.135 18.9614L178.46 32.999H181.931L187.291 18.9354H184.203L180.221 30.3955L176.239 18.9354H173.179V18.9614H173.135Z" stroke="#838284" stroke-width="0.5"/>
<path d="M108.808 20.3647C108.349 19.4799 107.711 18.8163 106.894 18.3739C106.077 17.9145 105.133 17.6847 104.061 17.6847C102.887 17.6847 101.84 17.9485 100.921 18.476C100.003 19.0035 99.2795 19.7522 98.752 20.7221C98.2415 21.692 97.9863 22.815 97.9863 24.0912C97.9863 25.3674 98.2415 26.4989 98.752 27.4858C99.2795 28.4557 100.003 29.2044 100.921 29.7319C101.84 30.2594 102.887 30.5232 104.061 30.5232C105.643 30.5232 106.928 30.0807 107.915 29.1959C108.902 28.3111 109.506 27.1115 109.727 25.5971H103.065V23.2744H112.841V25.546C112.654 26.9243 112.16 28.192 111.361 29.3491C110.578 30.5061 109.549 31.4335 108.272 32.1312C107.013 32.8118 105.609 33.1521 104.061 33.1521C102.393 33.1521 100.87 32.7692 99.4922 32.0035C98.1139 31.2208 97.0164 30.1403 96.1996 28.762C95.3999 27.3837 95 25.8268 95 24.0912C95 22.3556 95.3999 20.7986 96.1996 19.4204C97.0164 18.0421 98.1139 16.9701 99.4922 16.2044C100.887 15.4216 102.41 15.0303 104.061 15.0303C105.95 15.0303 107.626 15.4982 109.089 16.4341C110.569 17.3529 111.641 18.6631 112.305 20.3647H108.808Z" stroke="#838284" stroke-width="0.5"/>
<path d="M118.621 20.9773C119.046 20.2626 119.608 19.7096 120.305 19.3183C121.02 18.9099 121.862 18.7057 122.832 18.7057V21.7175H122.092C120.952 21.7175 120.084 22.0068 119.488 22.5853C118.91 23.1638 118.621 24.1678 118.621 25.5971V32.999H115.711V18.9354H118.621V20.9773Z" stroke="#838284" stroke-width="0.5"/>
<path fill-rule="evenodd" clip-rule="evenodd" d="M138.294 27.0519C138.362 26.6265 138.396 26.1501 138.396 25.6226C138.396 24.2613 138.107 23.0617 137.528 22.0238C136.95 20.9688 136.141 20.152 135.104 19.5735C134.066 18.995 132.883 18.7057 131.556 18.7057C130.177 18.7057 128.952 19.0035 127.88 19.599C126.825 20.1946 126 21.0454 125.405 22.1514C124.826 23.2404 124.537 24.5081 124.537 25.9544C124.537 27.4008 124.834 28.6769 125.43 29.783C126.043 30.872 126.876 31.7228 127.931 32.3353C129.003 32.9309 130.211 33.2287 131.556 33.2287C133.206 33.2287 134.585 32.8203 135.691 32.0035C136.814 31.1698 137.588 30.1063 138.013 28.8131H134.874C134.227 30.1233 133.121 30.7784 131.556 30.7784C130.467 30.7784 129.548 30.4381 128.799 29.7574C128.05 29.0768 127.634 28.175 127.548 27.0519H138.294ZM134.21 22.1259C134.959 22.7725 135.342 23.6318 135.359 24.7038H127.574C127.71 23.6147 128.136 22.7554 128.85 22.1259C129.565 21.4793 130.424 21.156 131.428 21.156C132.534 21.156 133.461 21.4793 134.21 22.1259Z" stroke="#838284" stroke-width="0.5"/>
<path fill-rule="evenodd" clip-rule="evenodd" d="M140.29 25.9034C140.29 24.4911 140.579 23.2404 141.157 22.1514C141.753 21.0624 142.553 20.2201 143.557 19.6245C144.578 19.012 145.701 18.7057 146.926 18.7057C148.032 18.7057 148.993 18.9269 149.81 19.3693C150.644 19.7947 151.307 20.3307 151.801 20.9773V18.9354H154.736V32.999H151.801V30.906C151.307 31.5696 150.635 32.1226 149.784 32.5651C148.934 33.0075 147.964 33.2287 146.875 33.2287C145.667 33.2287 144.561 32.9224 143.557 32.3098C142.553 31.6802 141.753 30.8124 141.157 29.7064C140.579 28.5834 140.29 27.3157 140.29 25.9034ZM151.801 25.9544C151.801 24.9845 151.597 24.1422 151.188 23.4276C150.797 22.7129 150.278 22.1684 149.631 21.7941C148.985 21.4197 148.287 21.2325 147.538 21.2325C146.79 21.2325 146.092 21.4197 145.445 21.7941C144.799 22.1514 144.271 22.6874 143.863 23.402C143.472 24.0997 143.276 24.9335 143.276 25.9034C143.276 26.8733 143.472 27.7241 143.863 28.4557C144.271 29.1874 144.799 29.7489 145.445 30.1403C146.109 30.5147 146.807 30.7018 147.538 30.7018C148.287 30.7018 148.985 30.5147 149.631 30.1403C150.278 29.766 150.797 29.2214 151.188 28.5068C151.597 27.7751 151.801 26.9243 151.801 25.9544Z" stroke="#838284" stroke-width="0.5"/>
<path fill-rule="evenodd" clip-rule="evenodd" d="M202.38 25.6226C202.38 26.1501 202.346 26.6265 202.278 27.0519H191.532C191.617 28.175 192.034 29.0768 192.783 29.7574C193.532 30.4381 194.45 30.7784 195.539 30.7784C197.105 30.7784 198.211 30.1233 198.858 28.8131H201.997C201.572 30.1063 200.797 31.1698 199.674 32.0035C198.568 32.8203 197.19 33.2287 195.539 33.2287C194.195 33.2287 192.987 32.9309 191.915 32.3353C190.86 31.7228 190.026 30.872 189.414 29.783C188.818 28.6769 188.52 27.4008 188.52 25.9544C188.52 24.5081 188.81 23.2404 189.388 22.1514C189.984 21.0454 190.809 20.1946 191.864 19.599C192.936 19.0035 194.161 18.7057 195.539 18.7057C196.867 18.7057 198.049 18.995 199.087 19.5735C200.125 20.152 200.933 20.9688 201.512 22.0238C202.091 23.0617 202.38 24.2613 202.38 25.6226ZM199.342 24.7038C199.325 23.6318 198.943 22.7725 198.194 22.1259C197.445 21.4793 196.518 21.156 195.412 21.156C194.408 21.156 193.549 21.4793 192.834 22.1259C192.119 22.7554 191.694 23.6147 191.558 24.7038H199.342Z" stroke="#838284" stroke-width="0.5"/>
<path d="M205.09 32.6416C205.447 32.999 205.89 33.1776 206.417 33.1776C206.928 33.1776 207.362 32.999 207.719 32.6416C208.076 32.2843 208.255 31.8419 208.255 31.3144C208.255 30.7869 208.076 30.3445 207.719 29.9872C207.362 29.6298 206.928 29.4512 206.417 29.4512C205.89 29.4512 205.447 29.6298 205.09 29.9872C204.733 30.3445 204.554 30.7869 204.554 31.3144C204.554 31.8419 204.733 32.2843 205.09 32.6416Z" stroke="#838284" stroke-width="0.5"/>
<path d="M87 24C87 27.5601 85.9443 31.0402 83.9665 34.0003C81.9886 36.9603 79.1774 39.2675 75.8883 40.6298C72.5992 41.9922 68.98 42.3487 65.4884 41.6541C61.9967 40.9596 58.7894 39.2453 56.2721 36.7279C53.7547 34.2106 52.0404 31.0033 51.3459 27.5116C50.6513 24.02 51.0078 20.4008 52.3702 17.1117C53.7325 13.8226 56.0397 11.0114 58.9997 9.03355C61.9598 7.05568 65.4399 6 69 6V15.28C67.2753 15.28 65.5894 15.7914 64.1554 16.7496C62.7214 17.7078 61.6038 19.0696 60.9438 20.663C60.2838 22.2564 60.1111 24.0097 60.4476 25.7012C60.784 27.3927 61.6145 28.9465 62.834 30.166C64.0535 31.3855 65.6073 32.216 67.2988 32.5524C68.9903 32.8889 70.7436 32.7162 72.337 32.0562C73.9304 31.3962 75.2922 30.2786 76.2504 28.8446C77.2086 27.4106 77.72 25.7247 77.72 24H87Z" fill="#838284"/>
<rect x="69" y="15.333" width="18" height="8.66667" fill="#424242"/>
</svg>
